<?xml version="1.0" encoding="iso-8859-1"?>

<svg version="1.1" id="Layer_1"
	xmlns="http://www.w3.org/2000/svg"
	xmlns:xlink="http://www.w3.org/1999/xlink" x="0px" y="0px" viewBox="0 0 512 512" style="enable-background:new 0 0 512 512;" xml:space="preserve">
	<g>
		<path style="fill:#FFE100;" d="M434.677,27.967c-118.784-13.762-238.583-13.762-357.358,0
		C38.363,32.143,8.826,65.008,8.826,104.185V450.2c0,24.382,19.765,44.138,44.138,44.138s44.138-19.756,44.138-44.138v-335.81
		c105.843-11.282,210.476-11.29,317.793,0V450.2c0,24.382,19.765,44.138,44.138,44.138s44.138-19.756,44.138-44.138V104.185
		C503.171,65.008,473.634,32.143,434.677,27.967"/>
		<path style="fill:#FFA800;" d="M434.677,27.83c-63.788-7.389-127.868-10.673-191.921-10.116
		c55.225,0.459,110.442,3.752,165.438,10.116c38.956,4.175,68.493,37.049,68.493,76.226v346.015
		c0,19.721-13.038,36.246-30.897,41.887c4.202,1.333,8.589,2.251,13.241,2.251c24.373,0,44.138-19.765,44.138-44.138V104.056
		C503.171,64.879,473.634,32.005,434.677,27.83"/>
		<path style="fill:#FFFFFF;" d="M77.316,27.83c63.788-7.389,127.868-10.673,191.921-10.116
		c-55.225,0.459-110.442,3.752-165.438,10.116c-38.956,4.175-68.493,37.049-68.493,76.226v346.015
		c0,19.721,13.038,36.246,30.897,41.887c-4.202,1.333-8.589,2.251-13.241,2.251c-24.373,0-44.138-19.765-44.138-44.138V104.056
		C8.822,64.879,38.359,32.005,77.316,27.83"/>
		<path style="fill:#FFE100;" d="M414.893,450.201V114.752c-107.317-11.282-211.95-11.273-317.793,0v335.448
		c53.831,17.284,106.637,26.324,158.897,26.483l0,0C308.256,476.524,361.062,467.485,414.893,450.201"/>
		<g>
			<path d="M255.47,97.071c53.027,0,106.222,2.842,160.344,8.545c4.493,0.468,7.91,4.255,7.91,8.775v335.81
			c0,19.474,15.837,35.31,35.31,35.31c19.465,0,35.31-15.837,35.31-35.31V104.186c0-34.745-26.059-63.744-60.61-67.443
			c-0.026,0-0.053,0-0.071-0.009c-117.892-13.656-237.444-13.647-355.328,0c-34.631,3.708-60.681,32.706-60.681,67.452v346.015
			c0,19.474,15.837,35.31,35.31,35.31c19.465,0,35.31-15.837,35.31-35.31v-335.81c0-4.52,3.399-8.307,7.892-8.775
			C149.583,99.914,202.443,97.071,255.47,97.071 M459.034,503.167c-29.211,0-52.966-23.755-52.966-52.966V122.354
			c-101.526-10.169-199.883-10.178-300.138-0.009v327.857c0,29.21-23.764,52.966-52.966,52.966C23.755,503.167,0,479.412,0,450.201
			V104.186c0-43.794,32.83-80.331,76.376-84.992c119.146-13.815,240.057-13.815,359.283,0C479.179,23.873,512,60.41,512,104.186
			v346.015C512,479.412,488.236,503.167,459.034,503.167"/>
			<path d="M414.893,450.201h0.088H414.893z M105.928,443.73c51.288,15.863,101.747,23.976,150.095,24.126
			c48.296-0.15,98.754-8.263,150.042-24.126V122.715c-101.517-10.152-199.874-10.169-300.138-0.009V443.73z M256.014,485.511
			c-52.136-0.159-106.496-9.207-161.615-26.906c-3.646-1.174-6.126-4.564-6.126-8.404V114.752c0-4.52,3.407-8.298,7.892-8.775
			c106.849-11.388,211.412-11.388,319.647,0c4.502,0.468,7.91,4.255,7.91,8.775v335.448c0,3.84-2.481,7.23-6.126,8.404
			C362.475,476.304,308.106,485.352,256.014,485.511L256.014,485.511z"/>
		</g>
	</g>

</svg>
